<?xml version="1.0" standalone="no"?><!DOCTYPE svg PUBLIC "-//W3C//DTD SVG 1.1//EN" "http://www.w3.org/Graphics/SVG/1.1/DTD/svg11.dtd"><svg t="1577955768131" class="icon" viewBox="0 0 1024 1024" version="1.1" xmlns="http://www.w3.org/2000/svg" p-id="1403" xmlns:xlink="http://www.w3.org/1999/xlink" width="200" height="200"><defs><style type="text/css"></style></defs><path d="M150.420991 1023.828082A122.85937 122.85937 0 0 1 21.333333 908.306147V418.831005h103.278658V349.040057C124.611991 158.736012 300.710421 0 511.874963 0c208.562312 0 387.305632 152.251768 387.305632 349.040057v69.790948H1002.501912v489.475142A122.85937 122.85937 0 0 1 873.414255 1023.828082z m-51.660659-115.521935a49.015769 49.015769 0 0 0 51.660659 45.730988h722.993264a48.97311 48.97311 0 0 0 51.660658-45.730988v-419.684195H98.760332zM821.753596 418.831005V349.040057c0-156.944313-145.426247-279.249109-309.878633-279.249109-168.41972 0-309.835973 127.423937-309.835973 279.249109v69.790948z m-322.804462 418.831004a36.94313 36.94313 0 0 1-38.69217-34.895474V639.892551a36.985789 36.985789 0 0 1 38.734829-34.895473h25.851659a36.94313 36.94313 0 0 1 38.69217 34.895473v162.873984a36.94313 36.94313 0 0 1-38.734829 34.895474z" fill="#5E63F3" p-id="1404"></path></svg>