<svg xmlns="http://www.w3.org/2000/svg" xmlns:xlink="http://www.w3.org/1999/xlink" width="240.68" height="58.605" viewBox="0 0 240.68 58.605">
  <defs>
    <filter id="大标题" x="0" y="0" width="240.68" height="58.605" filterUnits="userSpaceOnUse">
      <feOffset dy="3" input="SourceAlpha"/>
      <feGaussianBlur stdDeviation="3" result="blur"/>
      <feFlood flood-opacity="0.4"/>
      <feComposite operator="in" in2="blur"/>
      <feComposite in="SourceGraphic"/>
    </filter>
  </defs>
  <g transform="matrix(1, 0, 0, 1, 0, 0)" filter="url(#大标题)">
    <path id="大标题-2" data-name="大标题" d="M37.09-23.906H31.641q-2.637-7.91-11.6-7.91-12.3,1.055-13.008,16Q7.734-.879,20.918,0q8.438,0,11.426-5.449v-8.613H19.863V-17.4H37.09V-3.691Q32.871,3.164,20.918,3.164,2.461,2.285,1.758-15.82q.7-18.457,18.281-19.16Q33.223-35.156,37.09-23.906ZM44.712,2.637V-34.629h5.1L71.255-4.395V-34.629h4.922V2.637H71.255L49.809-27.246V2.637ZM110.166-9.141H88.545Q89.248,0,98.74,0a13.818,13.818,0,0,0,11.25-5.449v3.867q-4.219,4.746-12.3,4.746Q83.8,2.637,83.271-10.2,83.8-23.906,96.806-24.434,110.166-24.434,110.166-9.141ZM88.545-12.48h16.7q-.352-8.437-8.262-8.789Q89.775-21.094,88.545-12.48Zm27.309-8.262v-3.164h4.57V-34.629h4.922v10.723h5.977v3.164h-5.977V-3.867Q125.17,0,128.686,0a5.67,5.67,0,0,0,3.164-1.055V1.582a7.518,7.518,0,0,1-4.922,1.582q-6.68.176-6.5-6.68V-20.742Zm23.97-10.2v-3.34h36.738v3.34h-16v17.754H178.32v3.164H160.566V4.57h-4.922V-10.02H137.89v-3.164h17.754V-30.937Zm26.367,13.711a35.843,35.843,0,0,0,2.988-10.02h4.746a32.688,32.688,0,0,1-3.516,10.02Zm-20.391,0a30.109,30.109,0,0,1-3.516-10.02h4.746a29.465,29.465,0,0,0,2.988,10.02ZM190.16,2.988V-14.766h31.465V-2.637q.176,5.8-6.152,5.625ZM194.906,0h19.16q2.988,0,2.813-2.812V-11.6H194.906Zm24.961-17.578q-.527-1.406-1.055-2.988a213.685,213.685,0,0,1-26.719,1.406h-4.219v-3.691a40.361,40.361,0,0,0,11.074-13.184h5.8A42.474,42.474,0,0,1,192.8-22.852a193.334,193.334,0,0,0,24.785-.7,76.929,76.929,0,0,0-3.516-6.855h4.219a55.845,55.845,0,0,1,6.152,12.832Z" transform="translate(7.24 42.04)" fill="#fff"/>
  </g>
</svg>
