<?xml version="1.0" standalone="no"?><!DOCTYPE svg PUBLIC "-//W3C//DTD SVG 1.1//EN" "http://www.w3.org/Graphics/SVG/1.1/DTD/svg11.dtd"><svg t="1577955751777" class="icon" viewBox="0 0 1024 1024" version="1.1" xmlns="http://www.w3.org/2000/svg" p-id="1292" xmlns:xlink="http://www.w3.org/1999/xlink" width="200" height="200"><defs><style type="text/css"></style></defs><path d="M702.022636 556.359326A298.566647 298.566647 0 0 0 842.17835 307.440048a331.195716 331.195716 0 0 0-660.685337 0 295.623633 295.623633 0 0 0 140.155715 248.919278A461.200165 461.200165 0 0 0 21.333333 977.466255a50.201849 50.201849 0 0 0 100.105132 0c0-200.082306 175.173317-362.929085 390.397217-362.929085s390.397217 162.84678 390.397217 362.929085a50.201849 50.201849 0 0 0 100.105131 0 457.574712 457.574712 0 0 0-300.315394-421.106929zM281.51284 307.440048a230.83467 230.83467 0 1 1 230.322842 214.029633A221.792366 221.792366 0 0 1 281.51284 307.440048z m0 0" fill="#5E63F3" p-id="1293"></path></svg>