<?xml version="1.0"?>
<svg xmlns="http://www.w3.org/2000/svg" xmlns:xlink="http://www.w3.org/1999/xlink" width="141.711" height="40.559" viewBox="0 0 141.711 40.559">
  <defs>
    <filter id="&#x5C0F;&#x6807;&#x9898;" x="0" y="0" width="141.711" height="40.559" filterUnits="userSpaceOnUse">
      <feOffset dy="3"/>
      <feGaussianBlur stdDeviation="3" result="blur"/>
      <feFlood flood-opacity="0.4"/>
      <feComposite operator="in" in2="blur"/>
      <feComposite in="SourceGraphic"/>
    </filter>
  </defs>
  <g transform="matrix(1, 0, 0, 1, 0, 0)" filter="url(#&#x5C0F;&#x6807;&#x9898;)">
    <path id="&#x5C0F;&#x6807;&#x9898;-2" d="M20.605-13.281H17.578q-1.465-4.395-6.445-4.395Q4.3-17.09,3.906-8.789,4.3-.488,11.621,0q4.688,0,6.348-3.027V-7.812H11.035V-9.668h9.57v7.617q-2.344,3.809-8.984,3.809Q1.367,1.27.977-8.789q.391-10.254,10.156-10.645Q18.457-19.531,20.605-13.281ZM24.84,1.465v-20.7h2.832l11.914,16.8v-16.8H42.32v20.7H39.586l-11.914-16.6v16.6ZM61.2-5.078H49.191Q49.582,0,54.855,0a7.677,7.677,0,0,0,6.25-3.027V-.879Q58.762,1.758,54.27,1.758q-7.715-.293-8.008-7.422.293-7.617,7.52-7.91Q61.2-13.574,61.2-5.078ZM49.191-6.934h9.277q-.2-4.687-4.59-4.883Q49.875-11.719,49.191-6.934Zm15.172-4.59v-1.758H66.9v-5.957h2.734v5.957h3.32v1.758h-3.32v9.375Q69.539,0,71.492,0A3.15,3.15,0,0,0,73.25-.586V.879a4.177,4.177,0,0,1-2.734.879q-3.711.1-3.613-3.711v-9.57ZM77.68-17.187v-1.855H98.09v1.855H89.2v9.863h9.863v1.758H89.2V2.539H86.469V-5.566H76.605V-7.324h9.863v-9.863ZM92.328-9.57a19.913,19.913,0,0,0,1.66-5.566h2.637A18.16,18.16,0,0,1,94.672-9.57ZM81-9.57a16.727,16.727,0,0,1-1.953-5.566h2.637a16.369,16.369,0,0,0,1.66,5.566ZM105.645,1.66V-8.2h17.48v6.738q.1,3.223-3.418,3.125ZM108.281,0h10.645q1.66,0,1.563-1.562V-6.445H108.281Zm13.867-9.766q-.293-.781-.586-1.66a118.714,118.714,0,0,1-14.844.781h-2.344V-12.7a22.423,22.423,0,0,0,6.152-7.324h3.223a23.6,23.6,0,0,1-6.641,7.324,107.408,107.408,0,0,0,13.77-.391,42.739,42.739,0,0,0-1.953-3.809h2.344a31.025,31.025,0,0,1,3.418,7.129Z" transform="translate(8.02 26.02)" fill="#fff"/>
  </g>
</svg>
